<?xml version="1.0" encoding="utf-8"?>
<!-- Generator: Adobe Illustrator 24.0.1, SVG Export Plug-In . SVG Version: 6.00 Build 0)  -->
<svg version="1.1" id="Layer_1" xmlns="http://www.w3.org/2000/svg" xmlns:xlink="http://www.w3.org/1999/xlink" x="0px" y="0px"
	 viewBox="0 0 170 80" enable-background="new 0 0 170 80" xml:space="preserve">
<g>
	<rect fill="none" width="170" height="80"/>
	<g>
		<g>
			<g>
				<path fill="#AE8B2F" d="M16.9724617,28.3056946c0.4406433-1.3805752,0.7800179-2.3494034,1.3371601-3.5359249
					c0.0322208-1.22995-0.9352665-2.6348686-2.4546251-2.7900867c-0.1092196,0.5774784-0.4110994,2.7078686-0.4177113,3.1715584
					c-0.0078669,0.2821693,0.0052729,0.9260693,0.0190821,1.1562767c0.0322218,0.5294838-0.0407581,1.3970108-0.2078085,1.3970108
					c-0.1605234,0-0.2401152-0.867527-0.2078934-1.3970108c0.0138931-0.2302074,0.0269489-0.8741074,0.020421-1.1562767
					c-0.0078669-0.4636898-0.3005409-2.59408-0.4097595-3.1715584c-1.5200281,0.1552181-2.4947977,1.5601368-2.4638319,2.7900867
					c0.5570593,1.1865215,0.8964338,2.1553497,1.3384991,3.5359249c0.5794048,1.8403206,0.7411833,2.917038,1.0392132,4.8257446
					c0.2709131,1.7739105,0.3544388,2.6440849,0.3505049,4.3824387c-0.002594,1.5233116-0.1670504,2.3309975-0.1755877,3.9536133
					c-0.0131397,0.3209839,0.0499649,0.7103424,0.2065544,1.0036964c0.0874586,0.1690292,0.1808596,0.2940025,0.3018799,0.3768768
					c0.1223583-0.0828743,0.2130814-0.2078476,0.3018799-0.3768768c0.1552496-0.293354,0.2196932-0.6827126,0.2065535-1.0036964
					c-0.0086203-1.6226158-0.1729927-2.4303017-0.1756716-3.9536133c-0.002594-1.7383537,0.0809317-2.6085281,0.3505898-4.3824387
					C16.2298565,31.2227325,16.391634,30.1460152,16.9724617,28.3056946z"/>
				<path fill="#AE8B2F" d="M16.4739037,46.2412224c0.1401024-0.2361412,0.2545109-0.6031342,0.4472542-0.9096375
					c0.1578445-0.253231,0.3959522-0.5340843,0.5892811-0.7182503c0.5670185-0.5393372,1.1576385-0.9221382,1.7870922-1.2621803
					c1.0687561-0.5715599,1.7534466-0.6978531,2.9274902-0.8984528c0.5334568-0.0881386,1.1937923-0.1716652,1.502285-0.4840775
					c0.2861443-0.2992668,0.3828106-0.7610092,0.1433659-1.1043167c0.5886936,0,1.7640762-0.0105476,2.4770546-0.2749519
					c0.8142471-0.3018913,1.9475307-1.0076294,2.1764297-1.4726486h-5.1480255c-0.795248,0-1.5101528,0.1486588-2.2271481,0.4169998
					c-0.7655373,0.2854538-1.5226231,0.7175941-2.2776985,1.3996468c-0.8583546,0.7826958-1.4476337,1.5897217-1.8797398,2.4908218
					c-0.4157028,0.859642-0.7537384,1.8863525-0.8221989,3.0433006
					C16.2699451,46.4319687,16.3929729,46.3760414,16.4739037,46.2412224z"/>
				<path fill="#AE8B2F" d="M11.6488485,40.9333534c-0.7564144-0.6820526-1.5134163-1.114193-2.2790375-1.3996468
					c-0.7155733-0.2683411-1.4318156-0.4169998-2.2270646-0.4169998H1.9960597
					c0.2275608,0.4650192,1.3608444,1.1707573,2.1764305,1.4726486c0.7116399,0.2644043,1.8856816,0.2749519,2.4756322,0.2749519
					c-0.2393613,0.3433075-0.1440353,0.8050499,0.1434493,1.1043167c0.3097472,0.3124123,0.9700828,0.3959389,1.502202,0.4840775
					c1.1740417,0.2005997,1.8587322,0.3268929,2.9262333,0.8984528c0.6307926,0.3400421,1.2214127,0.7228432,1.7883472,1.2621803
					c0.1940832,0.184166,0.4315205,0.4650192,0.589365,0.7182503c0.1927443,0.3065033,0.3084908,0.6734962,0.4485931,0.9096375
					c0.0795918,0.134819,0.2025366,0.1907463,0.3032188,0.2262535c-0.0671215-1.1569481-0.406496-2.1836586-0.820859-3.0433006
					C13.0952272,42.5230751,12.5072021,41.7160492,11.6488485,40.9333534z"/>
				<path fill="#AE8B2F" d="M14.2310219,35.3012161c-0.0848646-0.7629623-0.2183542-1.5805054-0.4189663-2.5092354
					c-0.2078085-0.9359455-0.4341145-1.8916225-0.6984997-2.7960072c-0.1874714-0.6504803-0.3985443-1.278616-0.6347256-1.8449116
					c-0.4531965-1.1424809-0.9135904-1.9948902-1.3305483-2.5914536c-0.1881409-0.0703754-0.6517992-0.1460018-1.1319447-0.0986519
					c-0.4203043,0.0427456-0.8570137,0.1499557-1.1983967,0.3367481c0.2499065,0.2696686,0.4709396,0.5367107,0.6958218,0.8030949
					c0.2750149,0.3374062,0.5150452,0.6392975,0.6498747,0.8254509c0.1697292,0.2341404,0.5682735,0.8241234,0.8149166,1.2128448
					c0.6564026,1.0431557,1.0760374,2.3829308,1.1983967,2.663784c-0.3959503-0.7550564-1.0286684-1.9290981-1.4950037-2.5151367
					c-0.0197515-0.0269699-0.0993433-0.1256218-0.1302261-0.1624565C9.375,27.1888142,8.2858229,26.3048096,8.2858229,26.3048096
					s-0.5137067,0.4847488-0.6399155,1.2825813c-0.0717244,0.4544926-0.0862036,0.9826355,0.0512199,1.4167404
					c0.5643406,0.5018425,1.2076035,1.0813103,1.9850254,1.9231968c0.8623705,0.9431763,1.7654152,2.0678921,2.4059992,3.1209126
					c0.3288288,0.566967,0.6307926,1.1464348,0.8721628,1.7002182c0.1842079,0.4104424,0.3433075,0.7985039,0.4636583,1.1648369
					c0.0967484,0.3012428,0.1927443,0.7129898,0.250659,1.157608c0.0295439,0.2394257,0.0479565,0.5985374,0.0387497,0.8274193
					c-0.0190811,0.3341217-0.0657825,0.7688942-0.0387497,1.0905266c0.0295439,0.4137154,0.2867317,0.7155952,0.5741329,0.8589897
					c0.0493784-0.6807442,0.0954094-1.2726936,0.1197643-1.8988724c0.0295439-0.6235237,0.0295439-1.2740021,0.001255-1.8146706
					C14.3441744,36.531826,14.3066807,35.9332962,14.2310219,35.3012161z"/>
				<path fill="#AE8B2F" d="M16.8236561,39.9888496c0.0282879-0.3216324-0.0197506-0.7564049-0.0374947-1.0905266
					c-0.0078659-0.2288818,0.0092068-0.5879936,0.0374947-0.8274193c0.0585861-0.4446182,0.1552505-0.8563652,0.2512455-1.157608
					c0.1210213-0.366333,0.2802048-0.7543945,0.4630737-1.1648369c0.2427082-0.5537834,0.5432491-1.1332512,0.8734169-1.7002182
					c0.6406689-1.0530205,1.5437126-2.1777363,2.4060001-3.1209126c0.776083-0.8418865,1.4193459-1.4213543,1.9836864-1.9231968
					c0.138176-0.4341049,0.1242828-0.9622478,0.0526409-1.4167404c-0.1276302-0.7978325-0.6412525-1.2825813-0.6412525-1.2825813
					s-1.0865841,0.8840046-2.2645588,2.3204765c-0.0309677,0.0368347-0.1118145,0.1354866-0.1302261,0.1624565
					c-0.4663372,0.5860386-1.1003933,1.7600803-1.4950886,2.5151367c0.1210194-0.2808533,0.5419941-1.6206284,1.1983967-2.663784
					c0.2440491-0.3887215,0.6452713-0.9787045,0.8142471-1.2128448c0.135498-0.1861534,0.3756142-0.4880447,0.6505451-0.8254509
					c0.224966-0.2663841,0.4459133-0.5334263,0.6945648-0.8030949c-0.340044-0.1867924-0.7780914-0.2940025-1.1970577-0.3367481
					c-0.4801445-0.0473499-0.9451427,0.0282764-1.1319447,0.0986519c-0.4170399,0.5965633-0.8774338,1.4489727-1.3306313,2.5914536
					c-0.2360973,0.5662956-0.4485931,1.1944313-0.6359806,1.8449116c-0.2631302,0.9043846-0.4893513,1.8600616-0.6984997,2.7960072
					c-0.1993561,0.92873-0.3341866,1.746273-0.4163723,2.5092354c-0.0769138,0.6320801-0.1144085,1.2306099-0.1413574,1.8330803
					c-0.0270329,0.5406685-0.0270329,1.1911469,0.0012569,1.8146706c0.025692,0.6261787,0.0717239,1.2181282,0.1210194,1.8988724
					C16.5381813,40.7044449,16.7953682,40.402565,16.8236561,39.9888496z"/>
				<path fill="#AE8B2F" d="M6.1213598,34.4263649c0.5768943,0.0795937,1.2188182,0.1960106,1.8975668,0.3492622
					c0.6846905,0.1565361,1.454915,0.3880501,1.8943014,0.5755119c1.095706,0.4663353,1.6857405,1.0885315,2.1047058,1.8146706
					c0.1729937,0.301239,0.4341145,0.8339958,0.5044165,0.9984322c0,0,0.6130495,1.3621635,0.7867117,0.9280586
					c0,0,0.0407591-0.1433983-0.0131397-0.4729156c0-0.0013084-0.001339-0.0013084-0.0026779-0.002636
					c-0.0552368-0.3906898-0.1939993-1.0477524-0.4393873-1.6495743c-0.2051306-0.524868-0.5096884-1.1727257-0.868145-1.7962456
					c-0.5065079-0.8557053-1.0332708-1.5627632-1.4851274-2.0869751c-0.4341145-0.5025101-1.043231-1.1352501-1.6022987-1.5785389
					c-0.548522-0.4314785-1.0891776-0.7853317-1.4101391-1.0030365c-0.389339,0.0315514-0.7235241,0.1348286-1.0418077,0.2999229
					c-0.3584561,0.1913853-0.6498742,0.5774803-0.7899761,0.8754272c0.6498742,0.1795731,1.3628531,0.4275227,2.1205235,0.8629436
					c0.8583531,0.4919777,2.2007852,1.4976425,2.6914763,1.9271431c-1.1958027-0.8096771-1.8455935-1.0938034-2.798017-1.5298615
					c-0.7682161-0.4064865-2.1876454-0.7044449-2.1876454-0.7044449c-0.0769134,0.1953506-0.0078669,0.8984528,0.1039467,1.2845497
					C5.7168727,33.962677,5.9155593,34.2967987,6.1213598,34.4263649z"/>
				<path fill="#AE8B2F" d="M20.0157833,33.0839539c-0.4531975,0.5242119-0.9800434,1.2312698-1.4864674,2.0869751
					c-0.3584576,0.6235199-0.6616764,1.2713776-0.8695679,1.7962456c-0.2439651,0.6018219-0.3814716,1.2588844-0.4393044,1.6495743
					v0.002636c-0.0539818,0.3295174-0.0131397,0.4729156-0.0131397,0.4729156
					c0.1722393,0.4341049,0.7852898-0.9280586,0.7852898-0.9280586c0.0717239-0.1644363,0.3315067-0.6971931,0.5044994-0.9984322
					c0.4189663-0.7261391,1.0089169-1.3483353,2.1033669-1.8146706c0.4419823-0.1874619,1.2122059-0.4189758,1.8968964-0.5755119
					c0.677494-0.1532516,1.3180771-0.2696686,1.8962269-0.3492622c0.2084789-0.1295662,0.4038181-0.4636879,0.5347137-0.9083061
					c0.1131535-0.386097,0.1821995-1.0891991,0.1052856-1.2845497c0,0-1.4194298,0.2979584-2.1889,0.7044449
					c-0.951086,0.436058-1.6009598,0.7201843-2.7993565,1.5298615c0.4920292-0.4295006,1.8357162-1.4351654,2.6940708-1.9271431
					c0.7577534-0.435421,1.4693928-0.6833706,2.1205235-0.8629436c-0.1401024-0.2979469-0.4327755-0.684042-0.7899761-0.8754272
					c-0.3182831-0.1650944-0.6523857-0.2683716-1.0418072-0.2999229c-0.3222179,0.2177048-0.862957,0.571558-1.4114799,1.0030365
					C21.0575905,31.9487038,20.4485569,32.5814438,20.0157833,33.0839539z"/>
				<path fill="#AE8B2F" d="M26.650526,22.1046658c-2.0603485-1.765749-5.712532-3.8707066-11.4113407-3.8707066
					c-5.749526,0-9.3986988,2.1056271-11.4474974,3.8720474c-2.5712092,2.2166023-3.7219846,4.8581142-3.7219846,6.4926338
					v26.9524193l0.0016739,0.0471191c0.0895513,1.3000832,0.5065086,2.2583656,1.3502991,3.1054192
					c1.1701924,1.1830826,2.3596339,1.425457,3.7852569,1.425457H25.272274c1.4284687,0,2.6199188-0.2423744,3.7914505-1.4252052
					c0.8431206-0.8512383,1.2590733-1.8089371,1.3491268-3.1053352l0.0016747-0.0236855V28.5986404
					C30.414526,26.9720707,29.2506943,24.3332386,26.650526,22.1046658z M28.0895405,57.7389565
					c-0.7452011,0.7522316-1.4823666,1.0188751-2.8172665,1.0188751H5.206933c-1.3310499,0-2.0665421-0.2665634-2.8120773-1.0202141
					c-0.6069399-0.6092834-0.8841304-1.2510414-0.9539301-2.2108307v-5.6557465
					c0.8953452,0.3113785,2.3600523,0.2858925,3.0952935,0.2858925c0.0538979,0.3360901,0.1104741,0.6702118,0.478806,1.0036964
					c0.3880835,0.3439789,0.9392004,0.6715317,1.6186185,0.7741508c1.4891448,0.2222977,2.3652415,0.3630371,3.7240767,1.0030251
					c0.8044548,0.3748894,1.5595312,0.8063583,2.2764435,1.4068642c0.2478981,0.2052155,0.5485229,0.5229034,0.751729,0.8109818
					c0.2440481,0.3367691,0.3926859,0.745224,0.568943,1.0063248c0.1026077,0.1493187,0.2611217,0.2137604,0.3933563,0.2492867
					c-0.0914764-1.2898178-0.522913-2.4303017-1.0497589-3.3906021c-0.5512009-1.0049934-1.298995-1.911335-2.3961239-2.779541
					c-0.9615459-0.770195-1.9277792-1.2496796-2.9032183-1.5713234c-0.9069786-0.2985916-1.8185601-0.4636879-2.8335028-0.4636879
					H1.4409256v-3.4902916c0.3161913,0.1946259,0.6384921,0.3541374,1.0036438,0.492363
					c0.8155859,0.3051758,2.2086523,0.2815132,2.8979456,0.2815132c-0.1164165,0.3301659-0.0342302,0.7208557,0.3071527,1.0220985
					c0.3558617,0.3262329,0.9945211,0.5143547,1.614768,0.6064262c1.369381,0.2045555,2.1750917,0.33675,3.4234524,0.9241028
					c0.7353249,0.3426704,1.4285526,0.7386436,2.0888882,1.2891617c0.224966,0.1913872,0.501236,0.476841,0.6913023,0.7399406
					c0.2210331,0.3150406,0.3597956,0.686657,0.5215731,0.9273758c0.0913925,0.1387863,0.2374363,0.1986351,0.3584566,0.2289124
					c-0.0861197-1.1812935-0.478137-2.2310104-0.9635553-3.1123886c-0.5064249-0.9201508-1.1911154-1.7508621-2.1981068-2.5552559
					c-0.8839626-0.7011452-1.7660007-1.139183-2.665782-1.4397659c-0.8333287-0.2709961-1.6686664-0.4216118-2.6026778-0.4216118
					H1.4409256V28.5986404c0-2.5597439,4.1044607-8.9934578,13.7982597-8.9934578
					c9.6978149,0,13.8041172,6.4337139,13.8041172,8.9934578v15.1000481h-4.4476852
					c-0.9299927,0-1.7666702,0.1506157-2.5986595,0.4215927c-0.9011192,0.3005829-1.7818184,0.7386398-2.6697159,1.439785
					c-1.001049,0.8043938-1.6903419,1.6351051-2.1928349,2.5552559c-0.4893513,0.8813591-0.8827076,1.9310951-0.9648933,3.1123657
					c0.1170864-0.0302544,0.2657242-0.0901031,0.3571167-0.2288895c0.1617794-0.2407188,0.2979469-0.6136436,0.521574-0.9273987
					c0.1861324-0.2630768,0.4637413-0.5485306,0.6913013-0.7399368c0.6616764-0.5505219,1.3535633-0.9464722,2.0915661-1.2891426
					c1.2470226-0.5873528,2.0501385-0.7195473,3.4195194-0.9241028c0.6202469-0.0920944,1.2602463-0.2801933,1.617363-0.6064262
					c0.3387051-0.3019028,0.4222298-0.6945572,0.3071518-1.0221214c0.6872864,0,2.0810223,0.0236855,2.8953514-0.2814903
					c0.3530998-0.1336784,0.6664467-0.2875252,0.9728451-0.4734573v3.471386h-3.6913528
					c-1.0161972,0-1.9277782,0.1650963-2.8347569,0.4636879c-0.975441,0.3216438-1.9416733,0.8011284-2.9032192,1.5713234
					c-1.0971279,0.868206-1.8435841,1.7745476-2.3961239,2.779541c-0.5268459,0.9603004-0.9570274,2.1007843-1.04842,3.3906021
					c0.1308956-0.0355263,0.2907486-0.099968,0.3920174-0.2492867c0.1762562-0.2611008,0.3262348-0.6695557,0.568943-1.0063248
					c0.203207-0.2880783,0.50383-0.6057663,0.753067-0.8109818c0.7156582-0.6005058,1.4719887-1.0319748,2.2751045-1.4068642
					c1.3601761-0.6399879,2.2349319-0.7807274,3.7253342-1.0030251c0.6795006-0.1026192,1.2306175-0.430172,1.6173611-0.7741508
					c0.3683319-0.3334846,0.4262486-0.6676064,0.4788914-1.0036964c0.7265358,0,2.1652145,0.0247765,3.0631542-0.2750854v5.6448555
					C28.9731693,56.4844017,28.6959782,57.1266594,28.0895405,57.7389565z"/>
			</g>
			<g>
				<g>
					<path fill="#231F20" d="M41.7211456,26.6665421h5.0513077c1.6528816,0,2.9611511,0.366375,3.9248085,1.0984154
						c0.9636574,0.7320423,1.4465408,1.6753407,1.4465408,2.8327236c0,1.1482372-0.4211197,2.0318851-1.2633514,2.6495266
						c-0.8422356,0.6183281-2.0501442,0.9264641-3.6237144,0.9264641c-0.6057091,0-1.3145866-0.047039-2.1245422-0.1417732
						v3.8798828c0,0.8352165,0.1123009,1.4107513,0.3361969,1.7265739c0.2238922,0.3151398,0.6351852,0.4723587,1.2331734,0.4723587
						v0.4021645h-4.9804192V40.110714c0.5979881,0,1.0092812-0.1649284,1.2331734-0.4955101
						c0.223896-0.3305855,0.3361969-0.8815498,0.3361969-1.6542854v-8.6834488c0-0.8267994-0.1123009-1.4016247-0.3361969-1.7244759
						c-0.2238922-0.3228493-0.6351852-0.484993-1.2331734-0.484993V26.6665421z M46.8440437,27.1978436h-1.7118492v6.2093868
						c0.4646378,0.1572151,1.0345459,0.2358246,1.7118492,0.2358246c1.0380478,0,1.8585281-0.2674179,2.4607277-0.8029404
						c0.6014938-0.5348129,0.9032974-1.2668552,0.9032974-2.1954174c0-0.9994392-0.2996941-1.8234329-0.897686-2.4726677
						C48.7123947,27.5228157,47.8898125,27.1978436,46.8440437,27.1978436"/>
					<path fill="#231F20" d="M58.9025917,40.5126648v-0.3347816c0.6611557,0,0.9917259-0.2302132,0.9917259-0.68993
						c0-0.1312599-0.0287743-0.2793503-0.0877304-0.4442787l-1.0717392-3.2033157h-3.7044296l-0.7881927,2.3175507
						c-0.1958237,0.5846558-0.2947807,1.0078773-0.2947807,1.2710762c0,0.4863853,0.3045998,0.7362595,0.9117165,0.7488976
						v0.3347816h-2.9801102v-0.3347816c0.4267349-0.0589676,0.7580147-0.2000351,0.9945335-0.4232216
						c0.2365341-0.2232094,0.4765663-0.6871262,0.718708-1.3911095l3.19067-9.5165424h1.1882477l3.3499985,9.9411793
						c0.1958122,0.5846558,0.4014587,0.9629593,0.6148224,1.1334991c0.2133675,0.1705627,0.5558815,0.2561951,1.0289345,0.2561951
						v0.3347816H58.9025917z M55.2437859,35.1321754h3.2538223l-1.6360359-4.8891525L55.2437859,35.1321754z"/>
					<path fill="#231F20" d="M73.4010315,29.3088932v-0.3347816h3.4819412v0.3347816
						c-0.557991,0-0.9447174,0.1319618-1.1608963,0.3937473c-0.2168732,0.2625122-0.3249512,0.736969-0.3249512,1.4261932v9.3838959
						H75.044075L66.8687973,30.47962v8.103693c0,0.5706062,0.1165085,0.9790916,0.3495255,1.2254524
						c0.233017,0.2470512,0.6211472,0.3691826,1.1657944,0.3691826v0.3347816h-3.5015945V40.177948
						c0.5565796,0,0.9334793-0.1459923,1.1314011-0.4379578c0.1965256-0.2919846,0.2947845-0.8050385,0.2947845-1.5405922
						v-6.7540321c0-0.728529-0.1333542-1.2514133-0.3986511-1.5700665c-0.2653122-0.3179455-0.70327-0.5074406-1.3131866-0.5664062
						v-0.3347816h2.9618607l7.2488327,8.9810238v-6.747694c0-0.7081795-0.1003723-1.2015915-0.3004074-1.4802322
						C74.3071289,29.4478817,73.938652,29.3088932,73.4010315,29.3088932"/>
					<path fill="#231F20" d="M86.3284912,26.6665421h5.052002c1.6521835,0,2.9604416,0.366375,3.9248199,1.0984154
						c0.9636459,0.7320423,1.4458313,1.6753407,1.4458313,2.8327236c0,1.1482372-0.4211197,2.0318851-1.2633591,2.6495266
						c-0.8415375,0.6183281-2.0494308,0.9264641-3.6230087,0.9264641c-0.6057129,0-1.3145981-0.047039-2.1245422-0.1417732
						v3.8798828c0,0.8352165,0.1123047,1.4107513,0.3354874,1.7265739c0.2246017,0.3151398,0.6358948,0.4723587,1.2338715,0.4723587
						v0.4021645h-4.981102V40.110714c0.5979767,0,1.0092697-0.1649284,1.2331619-0.4955101
						c0.2246017-0.3305855,0.3361969-0.8815498,0.3361969-1.6542854v-8.6834488
						c0-0.8267994-0.1115952-1.4016247-0.3361969-1.7244759c-0.2238922-0.3228493-0.6351852-0.484993-1.2331619-0.484993V26.6665421
						z M91.4513855,27.1978436h-1.7111511v6.2093868c0.4639359,0.1572151,1.0345459,0.2358246,1.7111511,0.2358246
						c1.0380402,0,1.8585205-0.2674179,2.4614258-0.8029404c0.6014938-0.5348129,0.9026031-1.2668552,0.9026031-2.1954174
						c0-0.9994392-0.2996979-1.8234329-0.8969879-2.4726677C93.3204422,27.5228157,92.4978638,27.1978436,91.4513855,27.1978436"/>
					<path fill="#231F20" d="M103.5099335,40.5126648v-0.3347816c0.66185,0,0.9924316-0.2302132,0.9924316-0.68993
						c0-0.1312599-0.0294724-0.2793503-0.0884399-0.4442787l-1.0717239-3.2033157H99.637764l-0.7874985,2.3175507
						c-0.1965179,0.5846558-0.2947693,1.0078773-0.2947693,1.2710762c0,0.4863853,0.303894,0.7362595,0.911705,0.7488976v0.3347816
						h-2.9801102v-0.3347816c0.4260483-0.0589676,0.7580261-0.2000351,0.9938507-0.4232216
						c0.237236-0.2232094,0.4765549-0.6871262,0.7194061-1.3911095l3.1899719-9.5165424h1.1882477l3.3499908,9.9411793
						c0.1965256,0.5846558,0.4014587,0.9629593,0.6148148,1.1334991c0.2140884,0.1705627,0.5565796,0.2561951,1.0296402,0.2561951
						v0.3347816H103.5099335z M99.8511353,35.1321754h3.2545319l-1.6367416-4.8891525L99.8511353,35.1321754z"/>
					<path fill="#231F20" d="M118.7719498,28.8072128v3.4426537h-0.344635
						c-0.2751312-1.0682354-0.7158966-1.8550243-1.322998-2.3603649c-0.6057129-0.5053425-1.4149704-0.7573166-2.4242401-0.7573166
						c-1.3110886,0-2.3512421,0.4723549-3.1176605,1.4156551c-0.7678528,0.9447117-1.1517715,2.2038574-1.1517715,3.7774353
						c0,1.7251625,0.4049683,3.1134415,1.2149353,4.1662369c0.8099442,1.0521088,1.8704453,1.5785027,3.1829453,1.5785027
						c1.8157043,0,3.1569672-0.8457527,4.0223694-2.5372467l0.3053055,0.2849617
						c-0.3867188,0.918045-1.0120773,1.644455-1.8739624,2.1785851c-0.862587,0.5341072-1.8437958,0.8015251-2.946434,0.8015251
						c-1.0422592,0-2.0080261-0.2463646-2.8965759-0.7376556c-0.8885498-0.4920197-1.5735779-1.1686058-2.0557632-2.0311966
						c-0.4821701-0.8625908-0.7229156-1.8543205-0.7229156-2.9758911c0-1.8360672,0.5635986-3.3556061,1.6921921-4.5592976
						c1.127182-1.2029839,2.5505753-1.8044987,4.2687302-1.8044987c0.5769196,0,1.3082809,0.1017838,2.1933212,0.3053303
						c0.4990234,0.1179123,0.842926,0.176857,1.0331497,0.176857c0.2947693,0,0.5011215-0.1214237,0.6197433-0.364275H118.7719498z"
						/>
					<path fill="#231F20" d="M125.3025589,28.9744549v0.3348007c-0.4913177,0-0.8331223,0.1347485-1.0233231,0.4035587
						c-0.1902008,0.2695179-0.2849579,0.7481918-0.2849579,1.4374161v7.1968956
						c0,0.6892471,0.0947571,1.1665077,0.2849579,1.4325104c0.1902008,0.2652969,0.5320053,0.3986549,1.0233231,0.3986549v0.334095
						h-4.1508179v-0.334095c0.5053406,0,0.8492508-0.1312561,1.0331345-0.3937492
						c0.1831741-0.2624931,0.2751236-0.7418747,0.2751236-1.4374161v-7.1968956c0-0.7088661-0.090538-1.1931515-0.2709045-1.4521523
						c-0.1796875-0.2596855-0.5263977-0.3888226-1.0373535-0.3888226v-0.3348007H125.3025589z"/>
					<path fill="#231F20" d="M133.239624,34.9354439h-3.0495911v3.4096451c0,0.6899338,0.0954437,1.1679001,0.2856445,1.4339066
						c0.1902161,0.2660255,0.5341339,0.3993607,1.0331573,0.3993607v0.334095h-4.1508102v-0.334095
						c0.4976044,0,0.840126-0.1333351,1.0275192-0.3993607c0.1873932-0.2660065,0.2800293-0.7425613,0.2800293-1.4324913v-7.1968937
						c0-0.6955433-0.091217-1.1756115-0.2751312-1.441637c-0.1838837-0.2660046-0.5277863-0.3993587-1.0324173-0.3993587v-0.3340759
						h7.9176865v2.0459347h-0.2660065c-0.1242218-0.60993-0.287735-1.0099964-0.4912872-1.2001991
						s-0.6653595-0.2849388-1.3861847-0.2849388h-2.9421997v4.8295021h3.0102692
						c0.4063873,0,0.7081909-0.1031761,0.9047089-0.3095284c0.1972198-0.2070389,0.3249664-0.5593834,0.3839417-1.0576973h0.3151093
						v3.2461128h-0.3151093C134.449646,35.3712997,134.0327148,34.9354439,133.239624,34.9354439"/>
					<path fill="#231F20" d="M141.3733826,28.9744549v0.3348007c-0.4913177,0-0.8324127,0.1347485-1.0226135,0.4035587
						c-0.190918,0.2695179-0.2849731,0.7481918-0.2849731,1.4374161v7.1968956c0,0.6892471,0.0940552,1.1665077,0.2849731,1.4325104
						c0.1902008,0.2652969,0.5312958,0.3986549,1.0226135,0.3986549v0.334095h-4.1508179v-0.334095
						c0.5053406,0,0.8492432-0.1312561,1.0331268-0.3937492c0.1831818-0.2624931,0.2751312-0.7418747,0.2751312-1.4374161
						v-7.1968956c0-0.7088661-0.0898285-1.1931515-0.2709045-1.4521523
						c-0.1796875-0.2596855-0.5263977-0.3888226-1.0373535-0.3888226v-0.3348007H141.3733826z"/>
					<path fill="#231F20" d="M154.0816498,28.8072128v3.4426537h-0.344635
						c-0.2751312-1.0682354-0.7158966-1.8550243-1.322998-2.3603649c-0.6057129-0.5053425-1.4149628-0.7573166-2.4242401-0.7573166
						c-1.3110809,0-2.3512421,0.4723549-3.1176605,1.4156551c-0.7678528,0.9447117-1.1517639,2.2038574-1.1517639,3.7774353
						c0,1.7251625,0.4049683,3.1134415,1.2149353,4.1662369c0.8099365,1.0521088,1.8704376,1.5785027,3.1829376,1.5785027
						c1.8157043,0,3.1569672-0.8457527,4.0223694-2.5372467l0.3053131,0.2849617
						c-0.3867188,0.918045-1.012085,1.644455-1.8739624,2.1785851c-0.8625946,0.5341072-1.843811,0.8015251-2.9464417,0.8015251
						c-1.0422516,0-2.0080261-0.2463646-2.8965759-0.7376556c-0.8885498-0.4920197-1.5735779-1.1686058-2.0557556-2.0311966
						s-0.7229156-1.8543205-0.7229156-2.9758911c0-1.8360672,0.5635986-3.3556061,1.6921844-4.5592976
						c1.127182-1.2029839,2.5505676-1.8044987,4.2687378-1.8044987c0.5769196,0,1.3082733,0.1017838,2.1933136,0.3053303
						c0.4990234,0.1179123,0.842926,0.176857,1.0331573,0.176857c0.2947693,0,0.5011139-0.1214237,0.6197357-0.364275H154.0816498z"
						/>
				</g>
				<g>
					<path fill="#231F20" d="M48.0852509,46.9640961h0.0428505c0.3901749,0,0.6581573,0.1006012,0.7964172,0.2989502
						c0.1414413,0.2033768,0.2132492,0.5938873,0.2132492,1.1606522v2.6406746h-5.0483475v-2.6406746
						c0-0.5347977,0.0771675-0.9171867,0.2293205-1.1365471c0.1486359-0.2143364,0.4246559-0.3230553,0.8205223-0.3230553h0.0428505
						v-0.3588715h-3.4923325v0.3588715h0.0428505c0.3905106,0,0.6613426,0.1009331,0.8047905,0.2998734
						c0.1466293,0.2034569,0.2209511,0.5940514,0.2209511,1.161068v5.8784981c0,0.5408211-0.0731506,0.9238014-0.2176018,1.1382217
						c-0.1409378,0.2088966-0.4127731,0.3147659-0.8081398,0.3147659h-0.0428505v0.3588753h3.4923325v-0.3588753h-0.0428505
						c-0.3962021,0-0.6722183-0.1050339-0.820858-0.3122559c-0.1519852-0.2114906-0.2289848-0.5958099-0.2289848-1.1422386
						v-2.6939888h5.0483475v2.6939888c0,0.5522041-0.069294,0.938446-0.205883,1.1478462
						c-0.1329041,0.2034569-0.4032326,0.3066483-0.8037834,0.3066483h-0.0428505v0.3588753h3.4601936v-0.3588753H51.502594
						c-0.3853226,0-0.6546478-0.1035271-0.8007736-0.3077354c-0.1493073-0.2084808-0.224968-0.5937996-0.224968-1.1452522
						v-5.8784981c0-0.5513687,0.0758286-0.9381104,0.2251358-1.1492691c0.1461258-0.2068024,0.415451-0.3116722,0.8006058-0.3116722
						h0.0428505v-0.3588715h-3.4601936V46.9640961z"/>
					<path fill="#231F20" d="M57.8153725,46.3722229c-1.4457092,0-2.6694679,0.4757919-3.637291,1.4140739
						c-0.9683228,0.9387817-1.4592667,2.1263809-1.4592667,3.5298233c0,1.4032784,0.493454,2.6056099,1.4668007,3.573597
						c0.9731789,0.967907,2.1808662,1.458683,3.5895844,1.458683c1.4135704,0,2.6267815-0.4907761,3.605484-1.4585991
						c0.9787025-0.9679909,1.4749985-2.1703186,1.4749985-3.5736809c0-1.3767433-0.4922791-2.5575676-1.4631157-3.5095711
						C60.4218979,46.8547935,59.2182274,46.3722229,57.8153725,46.3722229z M61.3237724,51.3964653
						c0,1.2805023-0.3335991,2.3638191-0.9914246,3.2198296c-0.6551476,0.8525772-1.5210342,1.2848511-2.5732193,1.2848511
						c-1.0416412,0-1.8951378-0.4228172-2.5370636-1.2567291c-0.6445999-0.8370972-0.9713364-1.9514656-0.9713364-3.3122253
						c0-1.3603439,0.3307533-2.4650879,0.9828873-3.2835197c0.6499596-0.81567,1.5294037-1.2291946,2.6138916-1.2291946
						c1.0202179,0,1.8630028,0.4201355,2.5050926,1.2488632C60.997036,48.9003296,61.3237724,50.0200539,61.3237724,51.3964653z"/>
					<path fill="#231F20" d="M63.5926819,48.4986877h0.3637314l0.0030098-0.0395012
						c0.0361557-0.4663391,0.1990242-0.8043709,0.4840813-1.004734c0.2885742-0.2027855,0.7600937-0.3055611,1.4015198-0.3055611
						h1.3230133v7.154644c0,0.5304451-0.0728149,0.9108276-0.2162628,1.1306877
						c-0.1399307,0.2138367-0.4122696,0.3223-0.8094788,0.3223h-0.0428467v0.3588753h3.4200211v-0.3588753h-0.0428543
						c-0.3849869,0-0.6462708-0.0939865-0.7764969-0.2792816c-0.1334076-0.1898994-0.2010345-0.5685234-0.2010345-1.1254997
						v-7.2028503h1.387291c0.5940552,0,1.0446548,0.0937347,1.3390884,0.278614
						c0.2912521,0.1831169,0.4969635,0.5322838,0.6116257,1.0377884l0.0076981,0.0333939h0.261795v-1.8934631h-8.5139008V48.4986877
						z"/>
					<path fill="#231F20" d="M80.3168411,54.2953339c-0.1742477,0.3854027-0.3394547,0.6669464-0.4911118,0.8367577
						c-0.1491394,0.1671371-0.3342667,0.2831345-0.5501938,0.3448982c-0.220108,0.0628548-0.6270294,0.0947418-1.2095261,0.0947418
						h-1.6470718c-0.2395325,0-0.4094315-0.0448608-0.5051727-0.1332397
						c-0.0949097-0.0875435-0.1429443-0.2445488-0.1429443-0.466671v-3.3316422h2.2951889
						c0.4760437,0,0.7867126,0.0487099,0.9234619,0.1448746c0.1352539,0.0952415,0.2539291,0.3410454,0.352684,0.7307205
						l0.0082016,0.0323067h0.3573685v-2.3755379h-0.3603821l-0.0060272,0.0359039
						c-0.0570755,0.3479958-0.1489716,0.5860176-0.2728348,0.7074547c-0.1223602,0.1198502-0.3595428,0.1806107-0.7052002,0.1806107
						h-2.5924606v-3.9476204h2.6728058c0.5868607,0,0.9711761,0.0710564,1.1419067,0.2112389
						c0.1708984,0.1403542,0.3051453,0.4336967,0.3990479,0.8716621l0.0071945,0.0338936h0.2542648v-1.6604614h-6.8748627v0.3588715
						h0.0428543c0.3956985,0,0.6677017,0.102108,0.8084717,0.3033867c0.1441193,0.2061348,0.2172623,0.5955582,0.2172623,1.1575546
						v5.8945656c0,0.5410728-0.0706329,0.9213753-0.2097321,1.1303558
						c-0.1354141,0.2034569-0.4099274,0.3065643-0.8160019,0.3065643h-0.0428543v0.3588753h6.865654l0.4549561-1.8452568h-0.3635635
						L80.3168411,54.2953339z"/>
					<path fill="#231F20" d="M89.3941574,54.0031624c-0.2001877,0.6533051-0.4147797,1.0832329-0.6379013,1.2778206
						c-0.2212906,0.1929131-0.6200027,0.2907486-1.1850891,0.2907486h-1.8720474
						c-0.4052353,0-0.6809235-0.061348-0.819519-0.1822815c-0.1367493-0.1194305-0.2062149-0.3491669-0.2062149-0.682766v-6.2990532
						c0-0.5187302,0.0798416-0.8942566,0.2371826-1.116127c0.1541672-0.2172661,0.4141159-0.3274078,0.7724838-0.3274078h0.0428543
						v-0.3588715h-3.4601974v0.3588715h0.0428543c0.3910141,0,0.6620102,0.0957451,0.8054581,0.2846413
						c0.1461258,0.1924934,0.2202759,0.5423279,0.2202759,1.0396309v5.9348221c0,0.5568924-0.0800095,0.9574432-0.2376862,1.190361
						c-0.1541595,0.227562-0.4192963,0.3429718-0.7880478,0.3429718h-0.0428543v0.3588753h6.9046555l0.6025848-2.1425323h-0.3694153
						L89.3941574,54.0031624z"/>
					<path fill="#231F20" d="M94.0615387,50.5000343c-0.8486481-0.5091057-1.4068756-0.9300804-1.6596298-1.2512093
						c-0.2497406-0.3173599-0.3764496-0.6733894-0.3764496-1.0581284c0-0.413105,0.1514816-0.7480431,0.4504318-0.9954414
						c0.3013-0.249321,0.7057037-0.3757782,1.2019958-0.3757782c0.5594025,0,1.0295944,0.1692276,1.3973389,0.5030746
						c0.3677444,0.3339348,0.5861816,0.8059616,0.6489487,1.4029427l0.0041885,0.0383339h0.3625565v-2.2951927h-0.3402939
						l-0.008873,0.0310516c-0.0378265,0.1323166-0.0644455,0.1824493-0.0801773,0.2012787
						c-0.017746,0.0215111-0.0592575,0.0328102-0.1196823,0.0328102c-0.0863724,0-0.2440491-0.037159-0.4683456-0.1102257
						c-0.4951248-0.1667976-0.9592819-0.2513275-1.3795853-0.2513275c-0.7684708,0-1.4015198,0.2311592-1.8814163,0.6870346
						c-0.4807281,0.456459-0.7244415,1.0592155-0.7244415,1.7915268c0,0.3787918,0.060257,0.7313919,0.1791,1.0480843
						c0.1190109,0.3171959,0.3056488,0.6127129,0.5545502,0.878437c0.2472229,0.2638855,0.7452011,0.6277809,1.4801865,1.081646
						c0.8925018,0.5448418,1.4865494,0.9950256,1.765419,1.3379974c0.2758484,0.3391228,0.4156189,0.6979141,0.4156189,1.0664139
						c0,0.4941216-0.1692276,0.8945084-0.5028305,1.1901932c-0.3351059,0.2970276-0.7882156,0.4475899-1.3467865,0.4475899
						c-0.5901947,0-1.1132812-0.2096519-1.5545044-0.6231766c-0.4407272-0.4126892-0.6668625-0.9699135-0.6720581-1.6562805
						l-0.0003281-0.0425148h-0.3665771v2.6326408h0.3543549l0.0100403-0.0285416
						c0.0785065-0.2209473,0.1863022-0.3330116,0.3207169-0.3330116c0.0478668,0,0.1745834,0.0246887,0.5070038,0.1421089
						c0.664856,0.2362671,1.2202454,0.3560295,1.6509247,0.3560295c0.746376,0,1.3936539-0.2691574,1.9234314-0.7999344
						c0.5301056-0.5308647,0.7987595-1.1789818,0.7987595-1.9264412c0-0.5800743-0.1759186-1.1024857-0.5230789-1.5527534
						C95.7375717,51.6225204,95.0576477,51.0945015,94.0615387,50.5000343z"/>
					<path fill="#231F20" d="M109.6354218,52.307045h0.4044037c0.3685837,0,0.6281967,0.110054,0.7716446,0.3269882
						c0.1473007,0.2226219,0.2219543,0.6238441,0.2219543,1.1923676v1.022644c0,0.6484528-0.5036621,0.9637222-1.5399475,0.9637222
						c-1.0953674,0-2.0181656-0.4542007-2.7426071-1.3499641c-0.7267914-0.8985252-1.0952072-2.0463715-1.0952072-3.4118195
						c0-1.2428398,0.3185349-2.2705002,0.9467316-3.054451c0.6258545-0.7810211,1.4390182-1.1770554,2.4170532-1.1770554
						c0.7791748,0,1.4689713,0.2307396,2.0504684,0.6858597c0.580162,0.4541168,0.9274826,1.0678368,1.0324326,1.8240852
						l0.005188,0.0369911h0.3453217v-2.8656387h-0.3689194l-0.0108795,0.0266151
						c-0.0791702,0.1929092-0.2397003,0.2867317-0.4906082,0.2867317c-0.1985168,0-0.4917755-0.05616-0.8714066-0.1668854
						c-0.6067734-0.1825333-1.1758881-0.275013-1.691597-0.275013c-0.8608704,0-1.6860809,0.2345047-2.4525375,0.6971588
						c-0.7664566,0.4625702-1.371727,1.0978813-1.7992249,1.888279c-0.4273376,0.7900581-0.6439362,1.689003-0.6439362,2.6718063
						c0,1.4097214,0.4954605,2.5612488,1.4728317,3.422699c0.9756851,0.8601112,2.3542709,1.2962341,4.0977631,1.2962341
						c0.3302536,0,0.8031158-0.024437,1.405365-0.0726471c0.6020889-0.0482063,1.0197144-0.1028557,1.2409973-0.1623611
						l0.0318069-0.0084534v-2.5687828c0-0.4533653,0.0867004-0.7753296,0.2574387-0.9567757
						c0.1702271-0.1806946,0.4611435-0.2723351,0.8647156-0.2723351h0.0428467v-0.3588753h-3.902092V52.307045z"/>
					<path fill="#231F20" d="M123.3990326,55.3518715c-0.2733383-0.2518311-0.659668-0.7920685-1.148262-1.6054802
						c-0.438385-0.7386703-0.7985992-1.2750587-1.0704346-1.5945129c-0.2485657-0.2919197-0.50634-0.5300255-0.7674637-0.7089615
						c1.2530518-0.3987961,1.8881149-1.1816597,1.8881149-2.3282509c0-0.7279587-0.2932587-1.3351517-0.871582-1.8048325
						c-0.5756378-0.4675941-1.3538132-0.7046089-2.312767-0.7046089h-3.9074478v0.3588715h0.0428543
						c0.4060745,0,0.6807556,0.1006012,0.8163376,0.2990341c0.1389313,0.2035408,0.209404,0.5836754,0.209404,1.1297684v5.9106369
						c0,0.5463448-0.0719757,0.9306641-0.2137527,1.1423225c-0.138092,0.2061348-0.4112701,0.3106651-0.8119888,0.3106651
						h-0.0428543v0.3588753h3.476265v-0.3588753h-0.0428467c-0.3853226,0-0.6561508-0.1050339-0.8047943-0.3122559
						c-0.1519852-0.2114906-0.228981-0.5958099-0.228981-1.1422386v-2.549366h0.7204285
						c0.4007187,0,0.7714767,0.1323166,1.1022339,0.3933563c0.3347702,0.2640495,0.8057938,0.886055,1.4000092,1.8482704
						c0.5609131,0.920536,1.0459976,1.6289978,1.441864,2.1056252l0.012886,0.0154839h1.9912186v-0.3558617l-0.0398407-0.0029297
						C123.9498978,55.7359352,123.6678543,55.5997696,123.3990326,55.3518715z M120.8976212,49.1468048
						c0,0.6386604-0.1944962,1.15839-0.5781479,1.5445518c-0.3833084,0.386158-0.9206161,0.581913-1.5965195,0.581913h-1.1141205
						v-4.2207909h0.9453964c0.7035217,0,1.2763138,0.1950035,1.7028122,0.5794868
						C120.6820297,48.0153618,120.8976212,48.5250511,120.8976212,49.1468048z"/>
					<path fill="#231F20" d="M129.5109558,46.3722229c-1.4457092,0-2.6694717,0.4757919-3.637291,1.4140739
						c-0.9683304,0.9387817-1.4592743,2.1263809-1.4592743,3.5298233c0,1.4032784,0.493454,2.6056099,1.4668045,3.573597
						c0.9733429,0.967907,2.1810303,1.458683,3.5895844,1.458683c1.4137421,0,2.6269531-0.4907761,3.605484-1.4585991
						c0.9786987-0.9679909,1.4750061-2.1703186,1.4750061-3.5736809c0-1.3767433-0.4922943-2.5575676-1.4631195-3.5095711
						C132.1176453,46.8547935,130.9139709,46.3722229,129.5109558,46.3722229z M133.0193481,51.3964653
						c0,1.2805023-0.3336029,2.3638191-0.9914246,3.2198296c-0.6551514,0.8525772-1.5210266,1.2848511-2.5732117,1.2848511
						c-1.0416412,0-1.8951416-0.4228172-2.5370636-1.2567291c-0.6446075-0.837265-0.971344-1.9516335-0.971344-3.3122253
						c0-1.3600922,0.3307571-2.4648361,0.9828873-3.2835197c0.6499634-0.81567,1.5294113-1.2291946,2.6138992-1.2291946
						c1.0203857,0,1.8631592,0.4201355,2.5050812,1.2488632C132.6926117,48.9003296,133.0193481,50.0200539,133.0193481,51.3964653z
						"/>
					<path fill="#231F20" d="M142.1361694,46.9623413l0.0410156,0.0017548
						c0.3588715,0.015316,0.6111145,0.1266289,0.7497101,0.3307533c0.1417847,0.2086487,0.2135925,0.5884438,0.2135925,1.128849
						v5.6597252c-0.6626892,1.0196266-1.5536804,1.5365143-2.6487122,1.5365143c-0.7395172,0-1.3238525-0.218605-1.736618-0.6496239
						c-0.4132843-0.4316025-0.6228485-1.0338554-0.6228485-1.7901878v-4.7724953
						c0-0.5508652,0.0731506-0.9345131,0.2172699-1.1403999c0.1407623-0.2011108,0.4182892-0.3031349,0.8245392-0.3031349h0.0428467
						v-0.3588715h-3.4923248v0.3588715h0.0428467c0.4007263,0,0.6738892,0.1044502,0.8119812,0.3104172
						c0.1417847,0.2114906,0.2137604,0.5981522,0.2137604,1.1491852v4.63591c0,0.9817162,0.2919159,1.7837448,0.8675537,2.3837395
						c0.5761414,0.6005783,1.377243,0.9050522,2.3810577,0.9050522c1.1837463,0,2.2257233-0.4975548,3.0986481-1.479187v1.2461853
						h2.4076691v-0.3588753h-0.0428467c-0.3901825,0-0.6608429-0.1060371-0.8042908-0.3151016
						c-0.1469574-0.2140846-0.2214508-0.596981-0.2214508-1.137886v-5.8784981c0-0.5512009,0.0758209-0.9378586,0.2251282-1.1492691
						c0.1461334-0.2068024,0.415451-0.3116722,0.8006134-0.3116722h0.0428467v-0.3588715h-3.4119873V46.9623413z"/>
					<path fill="#231F20" d="M153.5997314,47.3611374c-0.6606598-0.5015717-1.5682373-0.7559128-2.6974182-0.7559128h-3.4816132
						v0.3588715h0.0428467c0.3903503,0,0.6608429,0.1047859,0.8044586,0.3113365
						c0.1467896,0.2114944,0.221283,0.59832,0.221283,1.1496048v5.9106369c0,0.5142899-0.0744934,0.8850479-0.2216187,1.1019821
						c-0.1434479,0.2115746-0.4139404,0.3188667-0.8041229,0.3188667h-0.0428467v0.3588753h3.4762573v-0.3588753h-0.0428467
						c-0.3905029,0-0.6611786-0.102272-0.8046265-0.3040543c-0.1467896-0.2062187-0.2211151-0.59338-0.2211151-1.1505241v-2.5923004
						c0.5312805,0.0605087,1.0031433,0.0912247,1.4033661,0.0912247c1.0756226,0,1.9140472-0.215004,2.4918671-0.6389923
						c0.5821686-0.4270859,0.8772736-1.0455742,0.8772736-1.8383141
						C154.6008759,48.5257225,154.2640839,47.8654671,153.5997314,47.3611374z M153.1975098,49.3557014
						c0,0.6163139-0.2020416,1.108345-0.6002502,1.4623642c-0.399704,0.3553581-0.9537506,0.5355492-1.6467285,0.5355492
						c-0.4398956,0-0.8173523-0.0500488-1.1221619-0.1488037v-4.1523323h1.1221619
						c0.6966553,0,1.2510376,0.2183533,1.6477356,0.6490364C152.9958038,48.1332016,153.1975098,48.6897583,153.1975098,49.3557014z
						"/>
				</g>
			</g>
		</g>
	</g>
	<g>
		<path fill="#231F20" d="M45.7458611,69.0293198v0.129509c-0.1727257-0.0129471-0.4037323-0.019577-0.6930161-0.019577
			c-0.371357,0-0.6476898,0.0066299-0.8290024,0.019577v-0.129509c0.1641426-0.008728,0.2817574-0.029213,0.3529854-0.0614395
			c0.071228-0.0325241,0.1069183-0.0918579,0.1069183-0.178299c0-0.0731888-0.0259018-0.1746826-0.0777054-0.3041916
			l-0.3951492-1.0622635h-1.5673485l-0.2654877,0.6863861c-0.086441,0.2331161-0.129509,0.4102097-0.129509,0.5312881
			c0,0.1337204,0.0463829,0.2310028,0.1391449,0.2912445c0.0929146,0.0605316,0.234169,0.0930634,0.4242134,0.0972748v0.129509
			c-0.2460632-0.0129471-0.4943886-0.019577-0.7446709-0.019577c-0.1944122,0-0.3562965,0.0066299-0.4858055,0.019577v-0.129509
			c0.2157974-0.0518036,0.3864174-0.2397385,0.5117073-0.5635071l1.5218697-3.9246902h0.103756l1.5802994,4.0737762
			C45.402668,68.8826447,45.5515976,69.0205917,45.7458611,69.0293198z M44.1590881,67.2936172l-0.7253952-1.9365997
			l-0.7383461,1.9365997H44.1590881z"/>
		<path fill="#231F20" d="M53.320118,64.7546539c-0.071228,0.0259018-0.1198692,0.0755997-0.145771,0.149086
			c-0.0259018,0.073494-0.0388527,0.1921539-0.0388527,0.3563004v3.2124023c0,0.1641388,0.0129509,0.2828064,0.0388527,0.3559952
			c0.0259018,0.0734863,0.074543,0.1231842,0.145771,0.1490784c0.0712318,0.0259018,0.1844749,0.0430756,0.3400345,0.0518036
			v0.129509c-0.1987801-0.0129471-0.4728546-0.019577-0.822525-0.019577c-0.3715057,0-0.6476898,0.0066299-0.8290024,0.019577
			v-0.129509c0.1554108-0.008728,0.2686539-0.0259018,0.3400345-0.0518036
			c0.071228-0.0258942,0.1197205-0.075592,0.1456223-0.1490784c0.0259018-0.0731888,0.0388527-0.1918564,0.0388527-0.3559952
			v-3.4717178l-1.5608749,4.1906357h-0.1036034l-1.632103-4.2035904v3.4199142c0,0.1683578,0.0140038,0.2936554,0.0421638,0.3755722
			c0.0280113,0.0819244,0.0829773,0.1412582,0.1650505,0.1780014c0.0820694,0.0367432,0.2094688,0.0593338,0.3821983,0.0680618
			v0.129509c-0.1554108-0.0129471-0.3757248-0.019577-0.6606407-0.019577c-0.2590179,0-0.4597549,0.0066299-0.6023636,0.019577
			v-0.129509c0.1511917-0.008728,0.263382-0.0313187,0.3368721-0.0680618
			c0.0733376-0.0367432,0.1230316-0.0969849,0.1489334-0.1813126s0.0388527-0.2081146,0.0388527-0.372261v-3.147644
			c0-0.1641464-0.0129509-0.2828064-0.0388527-0.3563004c-0.0259018-0.0734863-0.074543-0.1231842-0.145771-0.149086
			c-0.0712318-0.0258942-0.1844749-0.0430679-0.3400345-0.051796v-0.129509
			c0.1426086,0.0129471,0.3433456,0.019577,0.6023636,0.019577c0.2245293,0,0.4081001-0.0066299,0.55056-0.019577
			l1.4248848,3.7500076l1.3923645-3.7304306h0.304493c0.3496704,0,0.623745-0.0066299,0.822525-0.019577v0.129509
			C53.5045929,64.711586,53.3913498,64.7287598,53.320118,64.7546539z"/>
		<path fill="#231F20" d="M57.3000793,68.3817825c-0.0777054,0.2373352-0.2234764,0.4412308-0.4371643,0.6119995
			c-0.2138405,0.1704712-0.4718018,0.2557068-0.7740364,0.2557068c-0.3066025,0-0.572094-0.0701752-0.7966232-0.2105255
			c-0.2245331-0.1403503-0.3962059-0.3367233-0.5148697-0.5894165c-0.1188164-0.252388-0.1781502-0.544838-0.1781502-0.8773422
			c0-0.3758698,0.0605392-0.7017517,0.1814613-0.9782333c0.1207733-0.2761841,0.2913933-0.4888153,0.5115585-0.6379013
			c0.2201614-0.1487808,0.4770699-0.2234802,0.7707214-0.2234802c0.3886757,0,0.6875954,0.1177673,0.897068,0.3529892
			c0.2093201,0.2355194,0.3141327,0.59272,0.3141327,1.0718994h-2.0272522
			c-0.0129509,0.1210785-0.0194244,0.2590179-0.0194244,0.4147263c0,0.2849197,0.0463829,0.5330963,0.1392975,0.7445221
			c0.092762,0.211731,0.2157936,0.3746719,0.3690948,0.4891205s0.3141327,0.171669,0.4824944,0.171669
			c0.2073631,0,0.3907814-0.0496902,0.55056-0.1490784c0.159626-0.0990906,0.2936516-0.2653427,0.4016228-0.4987564
			L57.3000793,68.3817825z M55.5124168,66.1536407c-0.1468239,0.1987839-0.2374802,0.4921341-0.271965,0.8809586h1.4119377
			c0.0085831-0.3370209-0.0400581-0.617424-0.145771-0.8421021c-0.1058655-0.2243805-0.2623291-0.3367233-0.4695435-0.3367233
			C55.8340797,65.8557739,55.6592445,65.9551697,55.5124168,66.1536407z"/>
		<path fill="#231F20" d="M63.3362045,68.9224014c0.0733376,0.0671692,0.200737,0.100296,0.3820457,0.100296v0.1361313
			c-0.3972549-0.0171661-0.6564217-0.0259018-0.7771988-0.0259018c-0.1209221,0-0.3626213,0.0087357-0.7253914,0.0259018v-0.1361313
			c0.1597748,0,0.2709122-0.0331268,0.3335571-0.100296c0.0624962-0.0668564,0.0939674-0.1888351,0.0939674-0.3659363v-1.8718414
			c0-0.1638412-0.0097885-0.2966614-0.029213-0.3981552c-0.0194283-0.1015015-0.0647545-0.1846237-0.1359863-0.249382
			c-0.071228-0.0647507-0.1804047-0.0969772-0.3270798-0.0969772c-0.1641464,0-0.3130798,0.0518036-0.4469528,0.1554108
			c-0.1338768,0.1035995-0.2385368,0.2448578-0.3139839,0.424057c-0.0755959,0.1792068-0.1133919,0.3767776-0.1133919,0.5927277
			v1.4441605c0,0.1771011,0.0365906,0.2990799,0.1100807,0.3659363c0.0733376,0.0671692,0.200737,0.100296,0.3821983,0.100296
			v0.1361313c-0.3974075-0.0171661-0.6564255-0.0259018-0.7771988-0.0259018c-0.1209221,0-0.3627739,0.0087357-0.7253952,0.0259018
			v-0.1361313c0.159626,0,0.2709122-0.0331268,0.3335571-0.100296c0.0624962-0.0668564,0.0938187-0.1888351,0.0938187-0.3659363
			v-1.8718414c0-0.1638412-0.0096359-0.2966614-0.0290642-0.3981552c-0.0194244-0.1015015-0.0647545-0.1846237-0.1359825-0.249382
			c-0.0713806-0.0647507-0.1804085-0.0969772-0.3270836-0.0969772c-0.1641426,0-0.3132286,0.0518036-0.4469528,0.1554108
			c-0.133873,0.1035995-0.238533,0.2460632-0.3141327,0.4273758c-0.0755959,0.1813049-0.1132431,0.3800888-0.1132431,0.5957336
			v1.4378357c0,0.1771011,0.0311737,0.2990799,0.0938187,0.3659363c0.0624962,0.0671692,0.1737823,0.100296,0.3335571,0.100296
			v0.1361313c-0.3626213-0.0171661-0.6044693-0.0259018-0.7253952-0.0259018c-0.1209221,0-0.37994,0.0087357-0.7771988,0.0259018
			v-0.1361313c0.1813126,0,0.308712-0.0331268,0.3822021-0.100296c0.0733376-0.0668564,0.1100807-0.1888351,0.1100807-0.3659363
			v-2.0272446c0-0.1984787-0.0367432-0.3430481-0.1100807-0.4337006c-0.0734901-0.0906601-0.2008896-0.1361389-0.3822021-0.1361389
			v-0.1361313c0.1382446,0.0129471,0.2721176,0.019577,0.4016266,0.019577c0.271965,0,0.4964981-0.0301208,0.6735916-0.0906601
			v0.7640991c0.1036072-0.2674484,0.2502823-0.4650192,0.4403267-0.5924225
			c0.1898956-0.1274033,0.3972588-0.1912537,0.621788-0.1912537c0.2935028,0,0.5181847,0.0822296,0.6735916,0.2463684
			c0.1078262,0.1120377,0.174839,0.2849197,0.2007408,0.5180359c0.1078224-0.2719727,0.2567558-0.4674377,0.4469528-0.5861053
			c0.1898918-0.11866,0.3992157-0.178299,0.6281128-0.178299c0.2936516,0,0.5181808,0.0822296,0.6735916,0.2463684
			c0.0777054,0.0861359,0.1328201,0.196373,0.1651955,0.3300934c0.0323792,0.1340256,0.0484924,0.3066025,0.0484924,0.5183334
			v1.7290802C63.2259712,68.7335663,63.2627144,68.855545,63.3362045,68.9224014z"/>
		<path fill="#231F20" d="M67.3029099,66.1861725c0.2266388,0.3020859,0.3400345,0.7381973,0.3400345,1.3080292
			c0,0.3758774-0.0647507,0.6954269-0.1942673,0.9586639c-0.1295013,0.2635269-0.3034363,0.4620056-0.5213394,0.5957336
			c-0.2180557,0.1340256-0.4609604,0.2008896-0.7287064,0.2008896c-0.1597748,0-0.3141327-0.0322266-0.4630661-0.0972824
			c-0.1489334-0.0647583-0.2794952-0.1575165-0.3918381-0.2782898l-0.4597549,0.3885193l-0.1100769-0.0451736
			c0.0301132-0.1081238,0.0453262-0.2334137,0.0453262-0.3758774v-3.9764938c0-0.1984787-0.0367432-0.3433456-0.1100845-0.4340057
			c-0.0734863-0.0906525-0.2008896-0.1361313-0.3821945-0.1361313v-0.1358337
			c0.1380844,0.0129547,0.271965,0.0192795,0.401619,0.0192795c0.2719727,0,0.4963531-0.0301208,0.6734467-0.0906601v2.3380737
			c0.0950165-0.2201691,0.2320557-0.3906326,0.4112625-0.5117111c0.1791992-0.1207733,0.3788834-0.1813126,0.5991974-0.1813126
			C66.7793045,65.7325897,67.0762711,65.8837891,67.3029099,66.1861725z M66.7978287,68.7085648
			c0.1445694-0.2611237,0.2168503-0.6659088,0.2168503-1.2143631c0-0.5264664-0.0647507-0.9195023-0.1942596-1.1785202
			s-0.3281403-0.3885269-0.5958862-0.3885269c-0.1813126,0-0.3475647,0.0701752-0.4986038,0.210228
			c-0.1511993,0.1403503-0.2591705,0.3379211-0.3239212,0.59272v2.053154
			c0.0993881,0.1036072,0.2138367,0.182518,0.3433456,0.2364273s0.2632294,0.080719,0.401474,0.080719
			C66.4361115,69.1004028,66.6531143,68.9699936,66.7978287,68.7085648z"/>
		<path fill="#231F20" d="M71.4318008,68.3817825c-0.0776978,0.2373352-0.2234726,0.4412308-0.4371643,0.6119995
			c-0.2138367,0.1704712-0.4717941,0.2557068-0.7740326,0.2557068c-0.3066025,0-0.5720901-0.0701752-0.7966232-0.2105255
			s-0.3962021-0.3367233-0.5148697-0.5894165c-0.1188202-0.252388-0.1781464-0.544838-0.1781464-0.8773422
			c0-0.3758698,0.0605316-0.7017517,0.1814575-0.9782333c0.1207733-0.2761841,0.2913971-0.4888153,0.5115585-0.6379013
			c0.2201614-0.1487808,0.4770737-0.2234802,0.7707214-0.2234802c0.3886719,0,0.6875992,0.1177673,0.8970718,0.3529892
			c0.2093201,0.2355194,0.3141327,0.59272,0.3141327,1.0718994h-2.0272522
			c-0.0129547,0.1210785-0.0194321,0.2590179-0.0194321,0.4147263c0,0.2849197,0.0463867,0.5330963,0.1392975,0.7445221
			c0.0927658,0.211731,0.2157974,0.3746719,0.3691025,0.4891205c0.1532974,0.1144485,0.3141327,0.171669,0.4824905,0.171669
			c0.2073593,0,0.3907852-0.0496902,0.55056-0.1490784c0.1596222-0.0990906,0.2936478-0.2653427,0.4016266-0.4987564
			L71.4318008,68.3817825z M69.6441422,66.1536407c-0.1468277,0.1987839-0.2374802,0.4921341-0.271965,0.8809586h1.4119339
			c0.0085907-0.3370209-0.0400543-0.617424-0.1457672-0.8421021c-0.1058655-0.2243805-0.2623291-0.3367233-0.4695435-0.3367233
			C69.9658051,65.8557739,69.7909698,65.9551697,69.6441422,66.1536407z"/>
		<path fill="#231F20" d="M74.8222046,65.8816757c0.1100769,0.0993958,0.1650467,0.2201691,0.1650467,0.3626251
			c0,0.1123428-0.033432,0.2084198-0.100296,0.2882309c-0.067009,0.0801163-0.1566162,0.1198654-0.2688065,0.1198654
			c-0.0950165,0-0.1760406-0.0301132-0.242897-0.0906525c-0.0670166-0.0605392-0.100296-0.1424561-0.100296-0.2460632
			c0-0.1424637,0.0733337-0.2590179,0.2201614-0.3496704c-0.0302658-0.0433731-0.075592-0.0650558-0.1359787-0.0650558
			c-0.1685104,0-0.3218155,0.0659561-0.4599075,0.1975708c-0.1382446,0.1319199-0.2460632,0.2927475-0.3237686,0.4824982
			c-0.0777054,0.1900406-0.1165543,0.3692474-0.1165543,0.5376053v1.373085c0,0.1987762,0.0570679,0.3367233,0.1715164,0.4144287
			s0.2859726,0.1165543,0.5148697,0.1165543v0.1361313l-0.1554031-0.0066223
			c-0.4403305-0.0129547-0.7210312-0.0192795-0.8419571-0.0192795c-0.1123428,0-0.3669891,0.0087357-0.7642441,0.0259018v-0.1361313
			c0.1813126,0,0.3087082-0.0331268,0.3821945-0.100296c0.0733414-0.0668564,0.1100845-0.1888351,0.1100845-0.3659363v-2.0272446
			c0-0.1984787-0.0367432-0.3430481-0.1100845-0.4337006c-0.0734863-0.0906601-0.200882-0.1361389-0.3821945-0.1361389v-0.1361313
			c0.138237,0.0129471,0.2721176,0.019577,0.4016266,0.019577c0.271965,0,0.4964905-0.0301208,0.6735916-0.0906601v0.8095779
			c0.0777054-0.21595,0.2017899-0.4081039,0.372406-0.5764618c0.1704712-0.1683578,0.359314-0.2526932,0.5666733-0.2526932
			C74.5705643,65.7325897,74.7121201,65.7822876,74.8222046,65.8816757z"/>
		<path fill="#231F20" d="M80.3661957,66.1699066c0.2697067,0.2915421,0.4046402,0.733078,0.4046402,1.324295
			c0,0.5918198-0.1349335,1.0321503-0.4046402,1.3212814c-0.2698593,0.2894363-0.6249542,0.4340057-1.0654297,0.4340057
			c-0.4403229,0-0.7955704-0.1445694-1.0654297-0.4340057c-0.2698593-0.2891312-0.4047852-0.7294617-0.4047852-1.3212814
			c0-0.591217,0.1349258-1.032753,0.4047852-1.324295s0.6251068-0.4373169,1.0654297-0.4373169
			C79.7412415,65.7325897,80.0963364,65.8783646,80.3661957,66.1699066z M78.6854553,66.2605667
			c-0.1511917,0.2656403-0.2266388,0.6767502-0.2266388,1.2336349c0,0.5571823,0.0754471,0.967392,0.2266388,1.230629
			c0.1511917,0.2635345,0.3562927,0.3951492,0.6153107,0.3951492c0.2591705,0,0.464119-0.1316147,0.6153183-0.3951492
			c0.1510391-0.263237,0.2266388-0.6734467,0.2266388-1.230629c0-0.5568848-0.0755997-0.9679947-0.2266388-1.2336349
			c-0.1511993-0.2656479-0.3561478-0.398468-0.6153183-0.398468C79.041748,65.8620987,78.836647,65.9949188,78.6854553,66.2605667z"
			/>
		<path fill="#231F20" d="M83.91185,64.2688522c0.133728,0.1081238,0.2008896,0.2421494,0.2008896,0.4017792
			c0,0.0993881-0.0325241,0.1813049-0.0972824,0.2460632c-0.0647507,0.0647507-0.1466751,0.0969772-0.2460632,0.0969772
			s-0.1834183-0.0310211-0.2526932-0.0936661c-0.0689697-0.062645-0.1036072-0.1478806-0.1036072-0.2560043
			c0-0.0906525,0.0250015-0.1638412,0.0746918-0.2201614c0.0494003-0.0560226,0.1153564-0.0927658,0.1975784-0.1099319
			c-0.0129471-0.0433731-0.0475845-0.0780029-0.1039047-0.1039047c-0.0560226-0.0259018-0.1274033-0.0388565-0.2135391-0.0388565
			c-0.0951767,0-0.1792068,0.0216827-0.2526932,0.0647583c-0.0734863,0.0433655-0.129509,0.1014938-0.1683578,0.1749802
			c-0.0475845,0.086441-0.0789108,0.2138443-0.0939713,0.3822021s-0.0225906,0.4511719-0.0225906,0.8484268v0.1683578h0.6930237
			v0.129509H82.830307v2.5323334c0,0.1987762,0.0572281,0.3367233,0.1716766,0.4144287s0.28582,0.1165543,0.5147171,0.1165543
			v0.1361313L83.36129,69.1522064c-0.4403229-0.0129547-0.7210236-0.0192795-0.8417969-0.0192795
			c-0.1123428,0-0.3671417,0.0087357-0.7643967,0.0259018v-0.1361313c0.1813049,0,0.3087082-0.0331268,0.3821945-0.100296
			c0.0734863-0.0668564,0.1102371-0.1888351,0.1102371-0.3659363v-2.597084h-0.5183334v-0.129509h0.5183334
			c0-0.3797836,0.0234909-0.673439,0.0710754-0.8809509c0.0475845-0.2072144,0.133728-0.3840103,0.2590179-0.530983
			c0.0864334-0.0993881,0.1966705-0.1780014,0.3303909-0.2364273c0.133728-0.0581284,0.2807007-0.0873413,0.4403305-0.0873413
			C83.5730209,64.0941696,83.7606583,64.152298,83.91185,64.2688522z"/>
		<path fill="#231F20" d="M90.5372391,64.702858c-0.1511917,0.008728-0.263237,0.0313187-0.3367233,0.0680618
			s-0.122879,0.0972824-0.1487808,0.1813126c-0.0259018,0.0843277-0.0388565,0.2084198-0.0388565,0.3725586v1.9492493
			c0,0.3111191-0.0207825,0.5776672-0.0617371,0.7999344c-0.0409622,0.2225723-0.1090317,0.4135208-0.2039032,0.5731506
			c-0.1081238,0.1858292-0.2665482,0.3325043-0.4761658,0.4403229c-0.2093201,0.1081238-0.4457474,0.1620407-0.7089844,0.1620407
			c-0.4752579,0-0.837883-0.1165619-1.0881653-0.3496704c-0.1900482-0.1771011-0.3174438-0.3776855-0.3822021-0.6023636
			c-0.0647507-0.2243805-0.0969772-0.5589981-0.0969772-1.0038376v-2.033577c0-0.1641464-0.0129471-0.2828064-0.0388489-0.3563004
			c-0.0259018-0.0734863-0.0746994-0.1231842-0.1457748-0.149086c-0.0713806-0.0258942-0.1846237-0.0430679-0.3400345-0.051796
			v-0.129509c0.1813126,0.0129471,0.4574966,0.019577,0.8288498,0.019577c0.3499756,0,0.6240463-0.0066299,0.822525-0.019577
			v0.129509c-0.1554031,0.008728-0.2686539,0.0259018-0.3400345,0.051796
			c-0.0710754,0.0259018-0.1195679,0.0755997-0.1454697,0.149086c-0.0259018,0.073494-0.0388489,0.1921539-0.0388489,0.3563004
			v2.1435089c0,0.3457565,0.0234909,0.632782,0.0710754,0.8613739c0.0475922,0.2288971,0.1457748,0.4126205,0.2948608,0.55056
			c0.1487808,0.1382446,0.368042,0.2072144,0.6571732,0.2072144c0.4577942,0,0.7794571-0.1466751,0.9649887-0.4403305
			c0.1858292-0.2936478,0.2785873-0.7059631,0.2785873-1.2369461V65.324791c0-0.2334137-0.04216-0.3930359-0.1261902-0.4794769
			c-0.0843353-0.0861359-0.2388382-0.133728-0.4632187-0.1424561v-0.129509
			c0.1554108,0.0129471,0.3755722,0.019577,0.6604919,0.019577c0.2593155,0,0.4598999-0.0066299,0.6023636-0.019577V64.702858z"/>
		<path fill="#231F20" d="M94.6402283,64.7612839c0.3087158,0.185524,0.5484543,0.454483,0.7189178,0.8062592
			c0.1707764,0.3520813,0.2560043,0.7719269,0.2560043,1.2598419c0,0.474968-0.0876389,0.896019-0.2623291,1.2628555
			c-0.1749802,0.3671417-0.4189377,0.6520538-0.7318649,0.8547516c-0.3132324,0.2029953-0.6683273,0.3044968-1.0655823,0.3044968
			c-0.4102097,0-0.769516-0.0927658-1.0782318-0.278595c-0.3087082-0.185524-0.5484543-0.4541779-0.7189178-0.8062592
			c-0.1707687-0.3517838-0.2560043-0.7716293-0.2560043-1.2595444c0-0.4749603,0.0876465-0.8960114,0.2623291-1.2631531
			c0.1749878-0.3668365,0.4189453-0.6517563,0.7318726-0.8547516c0.3132248-0.2029953,0.6683197-0.3044968,1.0655823-0.3044968
			C93.9722061,64.4826889,94.3315201,64.5757523,94.6402283,64.7612839z M92.8075409,64.8874817
			c-0.2096176,0.1921539-0.3716583,0.4611053-0.4858017,0.8062592c-0.1144485,0.3454514-0.1716766,0.7406082-0.1716766,1.1854477
			c0,0.4490662,0.0635529,0.8442154,0.1909485,1.1851501s0.2990723,0.6044693,0.5150223,0.7900009
			c0.2159424,0.1858292,0.4574966,0.2785873,0.7252426,0.2785873c0.2764816,0,0.5192337-0.096077,0.7288589-0.2882309
			c0.2093201-0.1921539,0.3710556-0.4608078,0.4855042-0.8062592s0.1716766-0.7406082,0.1716766-1.1851501
			c0-0.4490585-0.0635529-0.8442078-0.1909485-1.1854477c-0.1274033-0.3409348-0.2990799-0.6044693-0.5150223-0.7900009
			c-0.21595-0.185524-0.4574966-0.2785873-0.7252426-0.2785873C93.259613,64.5992508,93.016861,64.6953278,92.8075409,64.8874817z"
			/>
		<path fill="#231F20" d="M98.3158493,64.702858c-0.1554108,0.008728-0.268959,0.0259018-0.3400345,0.051796
			c-0.0713806,0.0259018-0.119873,0.0755997-0.1457748,0.149086c-0.0259018,0.073494-0.0388489,0.1921539-0.0388489,0.3563004
			v3.2124023c0,0.1641388,0.0129471,0.2828064,0.0388489,0.3559952c0.0259018,0.0734863,0.0743942,0.1222763,0.1457748,0.1457672
			c0.0710754,0.0237961,0.1846237,0.0355377,0.3400345,0.0355377h0.4725494c0.2677536,0,0.4719543-0.0376434,0.6123047-0.1132431
			c0.1400452-0.075592,0.2427521-0.1975708,0.3075027-0.3659363c0.0647507-0.1683578,0.1123428-0.4123154,0.1424561-0.7318649
			h0.149086c-0.0129471,0.1340256-0.019577,0.3108139-0.019577,0.530983c0,0.2463608,0.0150604,0.5225449,0.0454788,0.8291473
			c-0.2936478-0.0129471-0.7881927-0.019577-1.4833145-0.019577c-0.8288498,0-1.4550095,0.0066299-1.8781662,0.019577v-0.129509
			c0.1554108-0.008728,0.2689514-0.0259018,0.3400345-0.0518036c0.0713806-0.0258942,0.1198654-0.075592,0.1457672-0.1490784
			c0.0259018-0.0731888,0.0388565-0.1918564,0.0388565-0.3559952v-3.2124023c0-0.1641464-0.0129547-0.2828064-0.0388565-0.3563004
			c-0.0259018-0.0734863-0.0743866-0.1231842-0.1457672-0.149086c-0.0710831-0.0258942-0.1846237-0.0430679-0.3400345-0.051796
			v-0.129509c0.1813126,0.0129471,0.4577942,0.019577,0.8291473,0.019577c0.3451538,0,0.6195297-0.0066299,0.8225327-0.019577
			V64.702858z"/>
		<path fill="#231F20" d="M105.8477859,64.5896072c0.1641464,0.0710831,0.3433456,0.1758957,0.5376053,0.3141327
			c0.0560226,0.0430679,0.0993958,0.0647583,0.129509,0.0647583c0.0819244,0,0.1361389-0.1316147,0.1620407-0.3951492h0.1487808
			c-0.0171661,0.2807007-0.0259018,0.7773438-0.0259018,1.4896393h-0.1487808
			c-0.0388565-0.2288971-0.0801163-0.4177399-0.1231842-0.5668259c-0.0430679-0.1487808-0.1099319-0.2794952-0.2005844-0.3918304
			c-0.1252975-0.1554108-0.2882309-0.2782974-0.4891205-0.3689499c-0.2005844-0.0906525-0.4111176-0.1361313-0.6315765-0.1361313
			c-0.2849197,0-0.535202,0.0930634-0.7511444,0.2785873c-0.21595,0.1855316-0.3822021,0.4499664-0.498764,0.7933121
			c-0.1165543,0.3433456-0.1746826,0.7439194-0.1746826,1.201416c0,0.7773438,0.1240921,1.3462753,0.372261,1.7064896
			c0.2481766,0.360817,0.6379013,0.5409241,1.1691895,0.5409241c0.2590103,0,0.4833908-0.066864,0.673439-0.2008896
			c0.0777054-0.0518036,0.1283035-0.1024017,0.152092-0.1520996c0.0237961-0.0496902,0.0358429-0.1174545,0.0358429-0.2038956
			v-0.6219406c0-0.1813126-0.0174637-0.3129272-0.0518036-0.3948441c-0.0346375-0.0822296-0.0951691-0.1382446-0.1816101-0.168663
			c-0.0861359-0.0301208-0.2264862-0.0493927-0.4207535-0.0581284v-0.129509
			c0.2243805,0.0129471,0.5288773,0.0192719,0.9131851,0.0192719c0.2933502,0,0.5180283-0.0063248,0.673439-0.0192719v0.129509
			c-0.0993881,0.0087357-0.171669,0.0259018-0.2168503,0.0518036c-0.0454788,0.0259018-0.075592,0.075592-0.0906525,0.1487808
			c-0.0153656,0.0734863-0.0228882,0.1924515-0.0228882,0.3563004v1.2824249h-0.129509
			c-0.0042191-0.0864334-0.0216904-0.1692581-0.0518036-0.2493744c-0.0301208-0.0798111-0.0710831-0.119873-0.1228867-0.119873
			c-0.0259018,0-0.0518036,0.0066299-0.0777054,0.019577c-0.0259018,0.0129547-0.071373,0.0430679-0.1361313,0.0906601
			c-0.1511917,0.1165543-0.3075104,0.2038956-0.4695435,0.2623291c-0.1617279,0.0581207-0.3421402,0.0873413-0.5406189,0.0873413
			c-0.4448471,0-0.8258362-0.0915604-1.14328-0.2752838c-0.3174515-0.1834183-0.5602036-0.4478531-0.7285614-0.7933121
			c-0.1683578-0.3454514-0.2526932-0.7577667-0.2526932-1.2369461c0-0.4924316,0.0897522-0.9252319,0.268959-1.2986984
			c0.1789017-0.3734589,0.4261703-0.6604919,0.7415085-0.8613739c0.315033-0.2008896,0.673439-0.3011856,1.0752182-0.3011856
			C105.4743195,64.4826889,105.6836395,64.5182266,105.8477859,64.5896072z"/>
		<path fill="#231F20" d="M110.4495316,65.8816757c0.1099319,0.0993958,0.1650543,0.2201691,0.1650543,0.3626251
			c0,0.1123428-0.033432,0.2084198-0.100296,0.2882309c-0.0671616,0.0801163-0.1566162,0.1198654-0.268959,0.1198654
			c-0.0948715,0-0.1758881-0.0301132-0.2427521-0.0906525c-0.0668564-0.0605392-0.1002884-0.1424561-0.1002884-0.2460632
			c0-0.1424637,0.0731888-0.2590179,0.2201614-0.3496704c-0.0304184-0.0433731-0.0755997-0.0650558-0.1361313-0.0650558
			c-0.1683655,0-0.3216629,0.0659561-0.4596024,0.1975708c-0.1382446,0.1319199-0.2463684,0.2927475-0.3240738,0.4824982
			c-0.0777054,0.1900406-0.1165543,0.3692474-0.1165543,0.5376053v1.373085c0,0.1987762,0.0572205,0.3367233,0.171669,0.4144287
			s0.2861252,0.1165543,0.5150223,0.1165543v0.1361313l-0.1554108-0.0066223
			c-0.4406281-0.0129547-0.7213287-0.0192795-0.8421021-0.0192795c-0.1123428,0-0.3671417,0.0087357-0.7640991,0.0259018v-0.1361313
			c0.1813126,0,0.3084106-0.0331268,0.381897-0.100296c0.073494-0.0668564,0.1102371-0.1888351,0.1102371-0.3659363v-2.0272446
			c0-0.1984787-0.0367432-0.3430481-0.1102371-0.4337006c-0.0734863-0.0906601-0.2005844-0.1361389-0.381897-0.1361389v-0.1361313
			c0.1379395,0.0129471,0.271965,0.019577,0.401474,0.019577c0.2719727,0,0.4963455-0.0301208,0.6734467-0.0906601v0.8095779
			c0.0777054-0.21595,0.2017899-0.4081039,0.3725586-0.5764618c0.1704712-0.1683578,0.3593063-0.2526932,0.5665207-0.2526932
			C110.1980515,65.7325897,110.3393021,65.7822876,110.4495316,65.8816757z"/>
		<path fill="#231F20" d="M113.9016724,66.1699066c0.2695618,0.2915421,0.4047928,0.733078,0.4047928,1.324295
			c0,0.5918198-0.135231,1.0321503-0.4047928,1.3212814c-0.2701569,0.2894363-0.6252518,0.4340057-1.0655746,0.4340057
			c-0.4403305,0-0.795723-0.1445694-1.0652771-0.4340057c-0.2698593-0.2891312-0.4047928-0.7294617-0.4047928-1.3212814
			c0-0.591217,0.1349335-1.032753,0.4047928-1.324295c0.2695541-0.2915421,0.6249466-0.4373169,1.0652771-0.4373169
			C113.2764206,65.7325897,113.6315155,65.8783646,113.9016724,66.1699066z M112.2207794,66.2605667
			c-0.1511917,0.2656403-0.2264862,0.6767502-0.2264862,1.2336349c0,0.5571823,0.0752945,0.967392,0.2264862,1.230629
			c0.1511917,0.2635345,0.3563004,0.3951492,0.6153183,0.3951492c0.2590103,0,0.464119-0.1316147,0.6153107-0.3951492
			c0.1511917-0.263237,0.2267914-0.6734467,0.2267914-1.230629c0-0.5568848-0.0755997-0.9679947-0.2267914-1.2336349
			c-0.1511917-0.2656479-0.3563004-0.398468-0.6153107-0.398468
			C112.5770798,65.8620987,112.3719711,65.9949188,112.2207794,66.2605667z"/>
		<path fill="#231F20" d="M118.2245255,68.4594879c0,0.1984787,0.0367508,0.3430481,0.1102371,0.4337006
			c0.0734863,0.0906601,0.2008896,0.1361313,0.3821945,0.1361313v0.1361389
			c-0.1340256-0.0132523-0.267746-0.019577-0.4017715-0.019577c-0.271965,0-0.4963455,0.0301132-0.673439,0.0906525v-0.7640915
			c-0.1036072,0.267746-0.2505875,0.464119-0.4403305,0.5891037c-0.1900482,0.1252975-0.3972549,0.1879425-0.6219406,0.1879425
			c-0.2936478,0-0.5180283-0.0819244-0.673439-0.2460709c-0.0777054-0.0864334-0.1328201-0.1963654-0.1650467-0.3303909
			c-0.0325317-0.133728-0.04879-0.3066025-0.04879-0.5180359v-1.6257706c0-0.1984787-0.0367432-0.3430481-0.1099319-0.4337006
			c-0.073494-0.0906601-0.2008896-0.1361389-0.3822021-0.1361389v-0.1361313
			c0.133728,0.0129471,0.2677536,0.019577,0.401474,0.019577c0.271965,0,0.4966507-0.0301208,0.6737442-0.0906601v2.5452881
			c0,0.1641388,0.0096359,0.2969589,0.0289154,0.3981628c0.019577,0.1014938,0.0650558,0.1846237,0.1361313,0.2493744
			c0.0713806,0.0647507,0.1801071,0.0972824,0.3270798,0.0972824c0.1641464,0,0.3129272-0.0518036,0.4469604-0.1554108
			c0.1337204-0.1036072,0.238533-0.245163,0.3141251-0.4243622c0.0752945-0.1789017,0.1132507-0.3764801,0.1132507-0.5924225
			v-1.3408585c0-0.1984787-0.0367508-0.3430481-0.1099319-0.4337006c-0.073494-0.0906601-0.2008896-0.1361389-0.3822021-0.1361389
			v-0.1361313c0.133728,0.0129471,0.2674484,0.019577,0.401474,0.019577c0.271965,0,0.4963455-0.0301208,0.673439-0.0906601
			V68.4594879z"/>
		<path fill="#231F20" d="M122.2175903,65.9205322c0.1834183,0.1252899,0.3270798,0.3087082,0.430687,0.55056
			c0.1036072,0.2418442,0.1554108,0.530983,0.1554108,0.8676987c0,0.3325043-0.053009,0.6436234-0.1587219,0.9327621
			c-0.1057129,0.2894363-0.2698593,0.5246582-0.4921341,0.7059631c-0.2225723,0.1813126-0.4999542,0.2719727-0.8321609,0.2719727
			c-0.1641464,0-0.3132248-0.0322266-0.4469528-0.0972824c-0.1340256-0.0647583-0.2376328-0.1487885-0.3108215-0.252388v0.8288498
			c0,0.1770935,0.0518036,0.2990723,0.1554108,0.3659363c0.1036072,0.0668564,0.2590179,0.1005936,0.4662323,0.1005936v0.1358337
			l-0.1487885-0.0063248c-0.4017715-0.0129547-0.6628952-0.019577-0.7836685-0.019577
			c-0.1039124,0-0.3370209,0.008728-0.699646,0.0259018v-0.1358337c0.1596298,0,0.2710648-0.0292206,0.3337097-0.0876465
			c0.0623474-0.0581284,0.0936661-0.162941,0.0936661-0.3141327v-3.2641983c0-0.1984787-0.0367432-0.3430481-0.1099319-0.4337006
			c-0.0734863-0.0906601-0.2008896-0.1361389-0.3821945-0.1361389v-0.1361313
			c0.1337204,0.0129471,0.267746,0.019577,0.401474,0.019577c0.2722626,0,0.4966431-0.0301208,0.6737366-0.0906601v0.6863937
			c0.0948792-0.2243805,0.2331161-0.3981628,0.4144287-0.521347c0.1813126-0.122879,0.3885269-0.1846237,0.6216354-0.1846237
			C121.827858,65.7325897,122.0341721,65.7952423,122.2175903,65.9205322z M122.1754227,67.429451
			c0-1.0014267-0.2502823-1.5022964-0.7511444-1.5022964c-0.1942596,0-0.3692474,0.0701752-0.5246582,0.210228
			c-0.1554108,0.1403503-0.267746,0.3424377-0.3367233,0.6056747v1.9429169
			c0.0602417,0.1252975,0.1487885,0.2255859,0.2653427,0.3011856c0.1165619,0.075592,0.2569122,0.1132431,0.421051,0.1132431
			C121.8667145,69.1004028,122.1754227,68.5435181,122.1754227,67.429451z"/>
	</g>
</g>
</svg>
